# Blender v3.1.2 OBJ File: 'Heart3DModel.blend'
# www.blender.org
o Sphere
v -0.666589 0.419638 0.000000
v -0.681996 0.206649 0.000000
v -0.509745 -0.206649 0.000000
v -0.179861 -0.508739 0.000000
v -0.615848 0.419638 -0.092438
v -0.630082 0.206649 -0.094575
v -0.579796 -0.029532 -0.087027
v -0.470943 -0.206649 -0.070688
v -0.332588 -0.346400 -0.049921
v -0.166170 -0.508739 -0.024942
v -0.471350 0.411253 -0.170804
v -0.482244 0.206649 -0.174752
v -0.443756 -0.029532 -0.160805
v -0.360444 -0.206649 -0.130615
v -0.254552 -0.346400 -0.092243
v -0.127181 -0.508739 -0.046087
v -0.255093 0.386099 -0.223166
v -0.260988 0.206649 -0.228324
v -0.240159 -0.029532 -0.210102
v -0.195071 -0.206649 -0.170657
v -0.137763 -0.346400 -0.120521
v -0.068830 -0.508739 -0.060215
v 0.000000 0.360944 -0.231836
v 0.000000 0.206649 -0.247136
v 0.000000 -0.029532 -0.227413
v 0.000000 -0.206649 -0.184718
v -0.000000 -0.346400 -0.130451
v -0.000000 -0.508739 -0.065177
v 0.255093 0.386099 -0.223166
v 0.260988 0.206649 -0.228324
v 0.240159 -0.029532 -0.210102
v 0.195071 -0.206649 -0.170657
v 0.137762 -0.346400 -0.120521
v 0.068830 -0.508739 -0.060215
v 0.471350 0.411253 -0.170804
v 0.482244 0.206649 -0.174752
v 0.443756 -0.029532 -0.160805
v 0.360444 -0.206649 -0.130615
v 0.254552 -0.346400 -0.092243
v 0.127181 -0.508739 -0.046087
v 0.615848 0.419638 -0.092438
v 0.630082 0.206649 -0.094575
v 0.579795 -0.029532 -0.087027
v 0.470943 -0.206649 -0.070688
v 0.332588 -0.346400 -0.049921
v 0.166170 -0.508739 -0.024942
v 0.666589 0.419638 0.000000
v 0.681995 0.206649 0.000000
v 0.627566 -0.029532 0.000000
v 0.509745 -0.206649 0.000000
v 0.359991 -0.346400 0.000000
v 0.179861 -0.508739 0.000000
v 0.615848 0.419638 0.092439
v 0.630081 0.206649 0.094575
v 0.579795 -0.029532 0.087027
v 0.470943 -0.206649 0.070688
v 0.332588 -0.346400 0.049921
v 0.166170 -0.508739 0.024942
v 0.471349 0.411253 0.170804
v 0.482243 0.206649 0.174752
v 0.443756 -0.029532 0.160805
v 0.360444 -0.206649 0.130615
v 0.254552 -0.346400 0.092243
v 0.127181 -0.508739 0.046087
v 0.255092 0.386099 0.223166
v 0.260988 0.206649 0.228324
v 0.240159 -0.029532 0.210102
v 0.195071 -0.206649 0.170657
v 0.137762 -0.346400 0.120521
v 0.068830 -0.508739 0.060215
v -0.000000 0.360944 0.231836
v -0.000000 0.206649 0.247136
v -0.000000 -0.029532 0.227413
v -0.000000 -0.206649 0.184718
v -0.000000 -0.346400 0.130451
v -0.000000 -0.508739 0.065177
v -0.255093 0.386099 0.223166
v -0.260989 0.206649 0.228324
v -0.240159 -0.029532 0.210102
v -0.195071 -0.206649 0.170657
v -0.137763 -0.346400 0.120521
v -0.068830 -0.508739 0.060215
v -0.471350 0.411253 0.170804
v -0.482244 0.206649 0.174752
v -0.443756 -0.029532 0.160805
v -0.360445 -0.206649 0.130615
v -0.254552 -0.346400 0.092243
v -0.127181 -0.508739 0.046087
v -0.615848 0.419638 0.092438
v -0.630082 0.206649 0.094575
v -0.579796 -0.029532 0.087027
v -0.470943 -0.206649 0.070688
v -0.332588 -0.346400 0.049921
v -0.166170 -0.508739 0.024942
v -0.627566 -0.029532 -0.000000
v -0.359991 -0.346400 -0.000000
v -0.000000 -0.666889 0.000000
v -0.000000 0.490959 0.080518
v -0.000000 0.490959 -0.080518
v 0.119144 0.521525 -0.163840
v 0.260049 0.521525 -0.200850
v 0.454680 0.521525 -0.153724
v 0.584728 0.521525 -0.083195
v 0.630395 0.521525 0.000000
v 0.584728 0.521525 0.083195
v 0.454680 0.521525 0.153724
v 0.260048 0.521525 0.200850
v 0.119144 0.521525 0.163840
v 0.030465 0.521525 -0.072466
v 0.030465 0.521525 0.072466
v -0.584728 0.521525 -0.083195
v -0.630396 0.521525 0.000000
v -0.454680 0.521525 -0.153724
v -0.260049 0.521525 -0.200850
v -0.119144 0.521525 -0.163840
v -0.119145 0.521525 0.163840
v -0.260049 0.521525 0.200850
v -0.454680 0.521525 0.153724
v -0.584728 0.521525 0.083195
v -0.030465 0.521525 -0.072466
v -0.030465 0.521525 0.072466
v 0.179634 0.623412 -0.114688
v 0.278267 0.623412 -0.140595
v 0.414509 0.623412 -0.107607
v 0.505543 0.623412 -0.058236
v 0.537509 0.623412 0.000000
v 0.505542 0.623412 0.058236
v 0.414508 0.623412 0.107607
v 0.278266 0.623412 0.140595
v 0.179633 0.623412 0.114688
v 0.117558 0.623412 -0.050726
v 0.117558 0.623412 0.050726
v -0.505543 0.623412 -0.058236
v -0.537510 0.623412 0.000000
v -0.414509 0.623412 -0.107607
v -0.278267 0.623412 -0.140595
v -0.179634 0.623412 -0.114688
v -0.179634 0.623412 0.114688
v -0.278267 0.623412 0.140595
v -0.414509 0.623412 0.107606
v -0.505543 0.623412 0.058236
v -0.117558 0.623412 -0.050726
v -0.117558 0.623412 0.050726
v 0.303772 0.684544 -0.056238
v 0.264319 0.684544 -0.045875
v 0.358269 0.684544 -0.043043
v 0.394682 0.684544 -0.023294
v 0.407469 0.684544 0.000000
v 0.394682 0.684544 0.023295
v 0.358268 0.684544 0.043043
v 0.303772 0.684544 0.056238
v 0.264319 0.684544 0.045875
v 0.239488 0.684544 -0.020290
v 0.239488 0.684544 0.020290
v -0.394682 0.684544 -0.023295
v -0.407469 0.684544 -0.000000
v -0.358269 0.684544 -0.043043
v -0.303772 0.684544 -0.056238
v -0.264319 0.684544 -0.045875
v -0.264319 0.684544 0.045875
v -0.303772 0.684544 0.056238
v -0.358269 0.684544 0.043043
v -0.394682 0.684544 0.023294
v -0.239489 0.684544 -0.020291
v -0.239489 0.684544 0.020290
v -0.315697 0.700860 -0.000000
v 0.315697 0.700859 0.000000
vn -0.9263 -0.3769 -0.0000
vn -0.7140 -0.0582 -0.6978
vn -0.6774 -0.3094 -0.6674
vn -0.6774 -0.7356 -0.0000
vn -0.5301 -0.6368 -0.5600
vn -0.6660 -0.7460 0.0000
vn -0.5913 -0.5311 -0.6069
vn -0.7770 -0.6296 0.0000
vn -0.9803 0.1975 0.0000
vn -0.9973 -0.0738 0.0000
vn -0.0000 -1.0000 0.0000
vn -0.5369 -0.6256 -0.5660
vn -0.3133 -0.4718 -0.8242
vn -0.3109 -0.4827 -0.8188
vn -0.3321 -0.3916 -0.8581
vn -0.3531 0.1137 -0.9286
vn -0.3648 -0.0379 -0.9303
vn -0.3574 -0.2154 -0.9088
vn -0.1405 -0.4008 -0.9053
vn -0.1412 -0.3909 -0.9095
vn -0.1550 -0.1710 -0.9730
vn -0.1478 -0.3190 -0.9362
vn -0.0849 0.1319 -0.9876
vn -0.1503 -0.0225 -0.9884
vn -0.0000 -0.3674 -0.9301
vn -0.0000 -0.1587 -0.9873
vn 0.0000 -0.3770 -0.9262
vn -0.0000 -0.2980 -0.9546
vn 0.0000 0.3096 -0.9509
vn 0.0000 0.0077 -1.0000
vn 0.1405 -0.4008 -0.9053
vn 0.1478 -0.3190 -0.9362
vn 0.1503 -0.0225 -0.9884
vn 0.1412 -0.3909 -0.9095
vn 0.1550 -0.1710 -0.9730
vn 0.3321 -0.3916 -0.8581
vn 0.0849 0.1319 -0.9876
vn 0.3648 -0.0379 -0.9303
vn 0.3109 -0.4827 -0.8188
vn 0.3133 -0.4718 -0.8242
vn 0.3574 -0.2154 -0.9088
vn 0.5301 -0.6368 -0.5600
vn 0.5369 -0.6256 -0.5660
vn 0.6774 -0.3094 -0.6674
vn 0.5913 -0.5311 -0.6069
vn 0.3531 0.1137 -0.9286
vn 0.7140 -0.0582 -0.6977
vn 0.9973 -0.0738 0.0000
vn 0.9263 -0.3769 0.0000
vn 0.6660 -0.7460 0.0000
vn 0.7770 -0.6296 0.0000
vn 0.7005 0.1610 -0.6953
vn 0.6774 -0.7356 0.0000
vn 0.5301 -0.6368 0.5600
vn 0.5913 -0.5311 0.6069
vn 0.9803 0.1975 0.0000
vn 0.7140 -0.0582 0.6978
vn 0.5369 -0.6256 0.5660
vn 0.6774 -0.3094 0.6674
vn 0.3531 0.1137 0.9286
vn 0.3648 -0.0379 0.9303
vn 0.3109 -0.4827 0.8188
vn 0.3321 -0.3916 0.8581
vn 0.3133 -0.4718 0.8242
vn 0.3574 -0.2154 0.9088
vn 0.1405 -0.4008 0.9053
vn 0.1478 -0.3190 0.9362
vn 0.1412 -0.3909 0.9095
vn 0.1550 -0.1710 0.9730
vn 0.0849 0.1319 0.9876
vn 0.1503 -0.0225 0.9884
vn -0.0000 -0.3770 0.9262
vn -0.0000 -0.1587 0.9873
vn -0.0000 -0.2980 0.9546
vn -0.0000 0.3096 0.9509
vn -0.0000 0.0077 1.0000
vn -0.0000 -0.3674 0.9301
vn -0.1405 -0.4008 0.9053
vn -0.1478 -0.3190 0.9362
vn -0.1503 -0.0225 0.9884
vn -0.1412 -0.3909 0.9095
vn -0.1550 -0.1710 0.9730
vn -0.3109 -0.4827 0.8188
vn -0.3133 -0.4718 0.8242
vn -0.3648 -0.0379 0.9303
vn -0.3574 -0.2154 0.9088
vn -0.3321 -0.3916 0.8581
vn -0.0849 0.1319 0.9876
vn -0.5913 -0.5311 0.6069
vn -0.5369 -0.6256 0.5660
vn -0.6774 -0.3094 0.6674
vn -0.5301 -0.6368 0.5600
vn -0.3531 0.1137 0.9286
vn -0.7140 -0.0582 0.6978
vn -0.7005 0.1610 0.6953
vn -0.0000 0.8984 0.4392
vn -0.6674 0.6911 -0.2774
vn 0.0000 0.8984 -0.4392
vn 0.6674 0.6911 0.2774
vn 0.3376 0.3452 0.8757
vn -0.0028 0.6590 0.7521
vn -0.0181 0.3371 0.9413
vn 0.3376 0.3452 -0.8757
vn 0.6404 0.4249 -0.6398
vn -0.0181 0.3371 -0.9413
vn 0.8722 0.4891 0.0000
vn -0.3589 0.5301 -0.7682
vn 0.6404 0.4249 0.6398
vn 0.7005 0.1610 0.6953
vn -0.3589 0.5301 0.7682
vn -0.6674 0.6911 0.2774
vn -0.6404 0.4249 -0.6398
vn -0.2720 0.6495 -0.7100
vn -0.3376 0.3452 -0.8757
vn -0.7005 0.1610 -0.6953
vn 0.3589 0.5301 -0.7682
vn 0.0181 0.3371 -0.9413
vn -0.6404 0.4249 0.6398
vn -0.8722 0.4891 0.0000
vn 0.6674 0.6911 -0.2774
vn 0.3589 0.5301 0.7682
vn 0.0181 0.3371 0.9413
vn -0.3376 0.3452 0.8757
vn 0.4794 0.7181 -0.5044
vn 0.6305 0.7762 0.0000
vn -0.5880 0.7699 -0.2480
vn -0.0028 0.6590 -0.7521
vn -0.3425 0.7176 0.6064
vn 0.4794 0.7181 0.5044
vn 0.2720 0.6495 -0.7100
vn -0.3425 0.7176 -0.6064
vn 0.2720 0.6495 0.7100
vn -0.5880 0.7699 0.2480
vn 0.3425 0.7176 -0.6064
vn 0.5880 0.7699 -0.2480
vn 0.0028 0.6590 0.7521
vn -0.2720 0.6495 0.7100
vn 0.0028 0.6590 -0.7521
vn 0.3425 0.7176 0.6064
vn -0.4794 0.7181 0.5044
vn 0.5880 0.7699 0.2480
vn -0.4794 0.7181 -0.5044
vn -0.6305 0.7762 0.0000
vn 0.0077 0.8867 -0.4622
vn 0.1621 0.8861 -0.4343
vn -0.1621 0.8861 0.4343
vn -0.2671 0.9149 0.3028
vn 0.1914 0.9129 0.3604
vn -0.0077 0.8867 -0.4622
vn -0.0077 0.8867 0.4622
vn 0.1914 0.9129 -0.3604
vn 0.3233 0.9355 -0.1423
vn -0.1621 0.8861 -0.4343
vn -0.3398 0.9405 -0.0000
vn -0.2671 0.9149 -0.3028
vn 0.3233 0.9355 0.1423
vn 0.2671 0.9149 0.3028
vn 0.0077 0.8867 0.4622
vn -0.1914 0.9129 0.3604
vn -0.3233 0.9355 -0.1423
vn 0.2671 0.9149 -0.3028
vn 0.3398 0.9405 0.0000
vn -0.3233 0.9355 0.1423
vn 0.1621 0.8861 0.4343
vn -0.1914 0.9129 -0.3604
vn -0.0028 1.0000 -0.0000
vn 0.0028 1.0000 -0.0000
s 1
f 95//1 6//2 7//3
f 96//4 10//5 4//6
f 95//1 8//7 3//8
f 1//9 6//2 2//10
f 97//11 4//6 10//5
f 96//4 8//7 9//12
f 10//5 15//13 16//14
f 7//3 14//15 8//7
f 6//2 11//16 12//17
f 97//11 10//5 16//14
f 9//12 14//15 15//13
f 6//2 13//18 7//3
f 97//11 16//14 22//19
f 14//15 21//20 15//13
f 12//17 19//21 13//18
f 15//13 22//19 16//14
f 13//18 20//22 14//15
f 12//17 17//23 18//24
f 20//22 27//25 21//20
f 18//24 25//26 19//21
f 21//20 28//27 22//19
f 19//21 26//28 20//22
f 18//24 23//29 24//30
f 97//11 22//19 28//27
f 27//25 34//31 28//27
f 25//26 32//32 26//28
f 23//29 30//33 24//30
f 97//11 28//27 34//31
f 26//28 33//34 27//25
f 24//30 31//35 25//26
f 31//35 38//36 32//32
f 29//37 36//38 30//33
f 97//11 34//31 40//39
f 33//34 38//36 39//40
f 31//35 36//38 37//41
f 33//34 40//39 34//31
f 97//11 40//39 46//42
f 38//36 45//43 39//40
f 36//38 43//44 37//41
f 39//40 46//42 40//39
f 38//36 43//44 44//45
f 35//46 42//47 36//38
f 43//44 48//48 49//49
f 45//43 52//50 46//42
f 44//45 49//49 50//51
f 41//52 48//48 42//47
f 97//11 46//42 52//50
f 45//43 50//51 51//53
f 51//53 58//54 52//50
f 49//49 56//55 50//51
f 47//56 54//57 48//48
f 97//11 52//50 58//54
f 51//53 56//55 57//58
f 48//48 55//59 49//49
f 54//57 59//60 60//61
f 97//11 58//54 64//62
f 57//58 62//63 63//64
f 54//57 61//65 55//59
f 57//58 64//62 58//54
f 55//59 62//63 56//55
f 97//11 64//62 70//66
f 63//64 68//67 69//68
f 60//61 67//69 61//65
f 63//64 70//66 64//62
f 61//65 68//67 62//63
f 60//61 65//70 66//71
f 69//68 76//72 70//66
f 68//67 73//73 74//74
f 66//71 71//75 72//76
f 97//11 70//66 76//72
f 69//68 74//74 75//77
f 66//71 73//73 67//69
f 75//77 82//78 76//72
f 73//73 80//79 74//74
f 71//75 78//80 72//76
f 97//11 76//72 82//78
f 74//74 81//81 75//77
f 73//73 78//80 79//82
f 97//11 82//78 88//83
f 80//79 87//84 81//81
f 79//82 84//85 85//86
f 81//81 88//83 82//78
f 79//82 86//87 80//79
f 77//88 84//85 78//80
f 87//84 92//89 93//90
f 84//85 91//91 85//86
f 88//83 93//90 94//92
f 85//86 92//89 86//87
f 83//93 90//94 84//85
f 97//11 88//83 94//92
f 93//90 4//6 94//92
f 91//91 3//8 92//89
f 89//95 2//10 90//94
f 97//11 94//92 4//6
f 93//90 3//8 96//4
f 91//91 2//10 95//1
f 98//96 109//97 99//98
f 99//98 121//99 98//96
f 106//100 129//101 107//102
f 41//52 102//103 103//104
f 35//46 101//105 102//103
f 47//56 103//104 104//106
f 99//98 100//107 23//29
f 47//56 105//108 53//109
f 53//109 106//100 59//60
f 29//37 100//107 101//105
f 98//96 108//110 110//111
f 65//70 108//110 71//75
f 59//60 107//102 65//70
f 111//112 135//113 113//114
f 1//9 111//112 5//115
f 17//23 115//116 23//29
f 11//16 114//117 17//23
f 1//9 119//118 112//119
f 99//98 115//116 120//120
f 77//88 116//121 117//122
f 89//95 118//123 119//118
f 83//93 117//122 118//123
f 98//96 116//121 71//75
f 5//115 113//114 11//16
f 104//106 125//124 126//125
f 110//111 131//126 109//97
f 100//107 123//127 101//105
f 108//110 129//101 130//128
f 104//106 127//129 105//108
f 102//103 123//127 124//130
f 109//97 122//131 100//107
f 105//108 128//132 106//100
f 103//104 124//130 125//124
f 110//111 130//128 132//133
f 120//120 137//134 142//135
f 118//123 139//136 140//137
f 113//114 136//138 114//117
f 121//99 138//139 116//121
f 119//118 140//137 141//140
f 115//116 136//138 137//134
f 120//120 143//141 121//99
f 112//119 133//142 111//112
f 112//119 141//140 134//143
f 116//121 139//136 117//122
f 124//130 144//144 146//145
f 141//140 162//146 163//147
f 143//141 160//148 138//139
f 135//113 158//149 136//138
f 140//137 161//150 162//146
f 142//135 159//151 164//152
f 133//142 157//153 135//113
f 138//139 161//150 139//136
f 134//143 163//147 156//154
f 134//143 155//155 133//142
f 143//141 164//152 165//156
f 137//134 158//149 159//151
f 126//125 149//157 127//129
f 130//128 151//158 152//159
f 122//131 144//144 123//127
f 132//133 153//160 131//126
f 126//125 147//161 148//162
f 128//132 151//158 129//101
f 132//133 152//159 154//163
f 125//124 146//145 147//161
f 127//129 150//164 128//132
f 131//126 145//165 122//131
f 155//155 156//154 166//166
f 156//154 163//147 166//166
f 163//147 162//146 166//166
f 162//146 161//150 166//166
f 161//150 160//148 166//166
f 160//148 165//156 166//166
f 165//156 164//152 166//166
f 164//152 159//151 166//166
f 159//151 158//149 166//166
f 158//149 157//153 166//166
f 157//153 155//155 166//166
f 154//163 152//159 167//167
f 152//159 151//158 167//167
f 151//158 150//164 167//167
f 150//164 149//157 167//167
f 149//157 148//162 167//167
f 148//162 147//161 167//167
f 147//161 146//145 167//167
f 146//145 144//144 167//167
f 144//144 145//165 167//167
f 145//165 153//160 167//167
f 153//160 154//163 167//167
f 95//1 2//10 6//2
f 96//4 9//12 10//5
f 95//1 7//3 8//7
f 1//9 5//115 6//2
f 96//4 3//8 8//7
f 10//5 9//12 15//13
f 7//3 13//18 14//15
f 6//2 5//115 11//16
f 9//12 8//7 14//15
f 6//2 12//17 13//18
f 14//15 20//22 21//20
f 12//17 18//24 19//21
f 15//13 21//20 22//19
f 13//18 19//21 20//22
f 12//17 11//16 17//23
f 20//22 26//28 27//25
f 18//24 24//30 25//26
f 21//20 27//25 28//27
f 19//21 25//26 26//28
f 18//24 17//23 23//29
f 27//25 33//34 34//31
f 25//26 31//35 32//32
f 23//29 29//37 30//33
f 26//28 32//32 33//34
f 24//30 30//33 31//35
f 31//35 37//41 38//36
f 29//37 35//46 36//38
f 33//34 32//32 38//36
f 31//35 30//33 36//38
f 33//34 39//40 40//39
f 38//36 44//45 45//43
f 36//38 42//47 43//44
f 39//40 45//43 46//42
f 38//36 37//41 43//44
f 35//46 41//52 42//47
f 43//44 42//47 48//48
f 45//43 51//53 52//50
f 44//45 43//44 49//49
f 41//52 47//56 48//48
f 45//43 44//45 50//51
f 51//53 57//58 58//54
f 49//49 55//59 56//55
f 47//56 53//109 54//57
f 51//53 50//51 56//55
f 48//48 54//57 55//59
f 54//57 53//109 59//60
f 57//58 56//55 62//63
f 54//57 60//61 61//65
f 57//58 63//64 64//62
f 55//59 61//65 62//63
f 63//64 62//63 68//67
f 60//61 66//71 67//69
f 63//64 69//68 70//66
f 61//65 67//69 68//67
f 60//61 59//60 65//70
f 69//68 75//77 76//72
f 68//67 67//69 73//73
f 66//71 65//70 71//75
f 69//68 68//67 74//74
f 66//71 72//76 73//73
f 75//77 81//81 82//78
f 73//73 79//82 80//79
f 71//75 77//88 78//80
f 74//74 80//79 81//81
f 73//73 72//76 78//80
f 80//79 86//87 87//84
f 79//82 78//80 84//85
f 81//81 87//84 88//83
f 79//82 85//86 86//87
f 77//88 83//93 84//85
f 87//84 86//87 92//89
f 84//85 90//94 91//91
f 88//83 87//84 93//90
f 85//86 91//91 92//89
f 83//93 89//95 90//94
f 93//90 96//4 4//6
f 91//91 95//1 3//8
f 89//95 1//9 2//10
f 93//90 92//89 3//8
f 91//91 90//94 2//10
f 98//96 110//111 109//97
f 99//98 120//120 121//99
f 106//100 128//132 129//101
f 41//52 35//46 102//103
f 35//46 29//37 101//105
f 47//56 41//52 103//104
f 99//98 109//97 100//107
f 47//56 104//106 105//108
f 53//109 105//108 106//100
f 29//37 23//29 100//107
f 98//96 71//75 108//110
f 65//70 107//102 108//110
f 59//60 106//100 107//102
f 111//112 133//142 135//113
f 1//9 112//119 111//112
f 17//23 114//117 115//116
f 11//16 113//114 114//117
f 1//9 89//95 119//118
f 99//98 23//29 115//116
f 77//88 71//75 116//121
f 89//95 83//93 118//123
f 83//93 77//88 117//122
f 98//96 121//99 116//121
f 5//115 111//112 113//114
f 104//106 103//104 125//124
f 110//111 132//133 131//126
f 100//107 122//131 123//127
f 108//110 107//102 129//101
f 104//106 126//125 127//129
f 102//103 101//105 123//127
f 109//97 131//126 122//131
f 105//108 127//129 128//132
f 103//104 102//103 124//130
f 110//111 108//110 130//128
f 120//120 115//116 137//134
f 118//123 117//122 139//136
f 113//114 135//113 136//138
f 121//99 143//141 138//139
f 119//118 118//123 140//137
f 115//116 114//117 136//138
f 120//120 142//135 143//141
f 112//119 134//143 133//142
f 112//119 119//118 141//140
f 116//121 138//139 139//136
f 124//130 123//127 144//144
f 141//140 140//137 162//146
f 143//141 165//156 160//148
f 135//113 157//153 158//149
f 140//137 139//136 161//150
f 142//135 137//134 159//151
f 133//142 155//155 157//153
f 138//139 160//148 161//150
f 134//143 141//140 163//147
f 134//143 156//154 155//155
f 143//141 142//135 164//152
f 137//134 136//138 158//149
f 126//125 148//162 149//157
f 130//128 129//101 151//158
f 122//131 145//165 144//144
f 132//133 154//163 153//160
f 126//125 125//124 147//161
f 128//132 150//164 151//158
f 132//133 130//128 152//159
f 125//124 124//130 146//145
f 127//129 149//157 150//164
f 131//126 153//160 145//165
